<svg xmlns="http://www.w3.org/2000/svg" xmlns:xlink="http://www.w3.org/1999/xlink" version="1.1" x="0px" y="0px" viewBox="0 0 100 100" enable-background="new 0 0 100 100" xml:space="preserve"><g><path d="M92,31.4l-41.3,9.6c0.1,0.1,0.2,0.3,0.2,0.4l1,4.5c0.2,1-0.5,2-1.6,2.2l0,0c-1.1,0.3-2.2-0.3-2.4-1.3l-1-4.5   c0-0.2,0-0.3,0-0.5l-17.1,4c0,0-0.1,0-0.1,0c-0.1,0-0.2,0-0.3,0.1c-3.2,0.8-6.2,2.2-8.7,4l-12.9,3c-2,0.5-3.4,2.3-3.3,4.4l0.2,3.3   c0.1,2.3,2,4.1,4.3,4.1c0.3,0,0.7,0,1-0.1l1.8-0.4c-0.6,3.2-0.7,6.6,0.1,10c2.9,12.6,15.6,20.5,28.2,17.5   c12.6-2.9,20.5-15.6,17.5-28.2c-0.7-2.8-1.8-5.4-3.3-7.6L92.4,44c0.8-0.2,1.3-0.9,1.3-1.7l0.6-8.9C94.5,32.2,93.3,31.1,92,31.4z    M12.7,60.4L9,61.2c-0.4,0.1-0.8-0.2-0.9-0.6L8,57.3c0-0.3,0.2-0.6,0.5-0.7l7.3-1.7C14.5,56.6,13.5,58.4,12.7,60.4z"></path><path d="M40,37.3c0.2,0.2,0.5,0.3,0.7,0.3c0.4,0,0.7-0.2,0.9-0.4c0.4-0.5,0.3-1.3-0.2-1.7L25.8,22.8c-0.5-0.4-1.3-0.3-1.7,0.2   c-0.4,0.5-0.3,1.3,0.2,1.7L40,37.3z"></path><path d="M51.3,33c0.1,0,0.2,0.1,0.3,0.1c0.5,0,1-0.3,1.1-0.9l5.8-19.4c0.2-0.6-0.2-1.3-0.8-1.5c-0.6-0.2-1.3,0.2-1.5,0.8l-5.8,19.4   C50.3,32.1,50.6,32.8,51.3,33z"></path><path d="M43.9,31.4c0.2,0.5,0.6,0.8,1.1,0.8c0.1,0,0.2,0,0.4-0.1c0.6-0.2,1-0.9,0.8-1.5l-6-19.3c-0.2-0.6-0.9-1-1.5-0.8   c-0.6,0.2-1,0.9-0.8,1.5L43.9,31.4z"></path></g></svg>